<svg width="24" height="21" viewBox="0 0 24 21" fill="none" xmlns="http://www.w3.org/2000/svg">
<path d="M12.3077 4.94118H2.46154C1.8087 4.94118 1.1826 5.20147 0.720968 5.6648C0.25934 6.12812 0 6.75652 0 7.41176V12.3529C0 13.0082 0.25934 13.6366 0.720968 14.0999C1.1826 14.5632 1.8087 14.8235 2.46154 14.8235H3.69231V19.7647C3.69231 20.0923 3.82198 20.4065 4.05279 20.6382C4.28361 20.8699 4.59666 21 4.92308 21H7.38462C7.71104 21 8.02409 20.8699 8.2549 20.6382C8.48571 20.4065 8.61539 20.0923 8.61539 19.7647V14.8235H12.3077L18.4615 19.7647V0L12.3077 4.94118ZM16 14.3294L13.5385 12.3529H2.46154V7.41176H13.5385L16 5.43529V14.3294ZM24 9.88235C24 11.9947 22.8185 13.9094 20.9231 14.8235V4.94118C22.8062 5.86765 24 7.78235 24 9.88235Z" fill="#D8C4B6"/>
</svg>
