<svg width="27" height="27" viewBox="0 0 27 27" fill="none" xmlns="http://www.w3.org/2000/svg">
<path d="M24.375 15H15V24.375C15 24.8723 14.8025 25.3492 14.4508 25.7008C14.0992 26.0525 13.6223 26.25 13.125 26.25C12.6277 26.25 12.1508 26.0525 11.7992 25.7008C11.4475 25.3492 11.25 24.8723 11.25 24.375V15H1.875C1.37772 15 0.900806 14.8025 0.549175 14.4508C0.197544 14.0992 0 13.6223 0 13.125C0 12.6277 0.197544 12.1508 0.549175 11.7992C0.900806 11.4475 1.37772 11.25 1.875 11.25H11.25V1.875C11.25 1.37772 11.4475 0.900805 11.7992 0.549174C12.1508 0.197544 12.6277 0 13.125 0C13.6223 0 14.0992 0.197544 14.4508 0.549174C14.8025 0.900805 15 1.37772 15 1.875V11.25H24.375C24.8723 11.25 25.3492 11.4475 25.7008 11.7992C26.0525 12.1508 26.25 12.6277 26.25 13.125C26.25 13.6223 26.0525 14.0992 25.7008 14.4508C25.3492 14.8025 24.8723 15 24.375 15Z" fill="#F5EFE7"/>
</svg>
