<svg width="22" height="22" viewBox="0 0 22 22" fill="none" xmlns="http://www.w3.org/2000/svg">
<path d="M9.8125 0.25C11.608 0.249879 13.3672 0.755245 14.8888 1.70826C16.4105 2.66128 17.6331 4.02344 18.4168 5.63885C19.2004 7.25427 19.5134 9.05768 19.32 10.8427C19.1266 12.6277 18.4345 14.3222 17.323 15.7323L21.4315 19.8407C21.6364 20.0529 21.7498 20.3371 21.7473 20.6321C21.7447 20.927 21.6264 21.2092 21.4178 21.4178C21.2092 21.6264 20.927 21.7447 20.6321 21.7473C20.3371 21.7498 20.0529 21.6364 19.8407 21.4315L15.7323 17.323C14.5346 18.2668 13.1287 18.9106 11.6316 19.2005C10.1346 19.4905 8.58999 19.4182 7.12658 18.9898C5.66317 18.5614 4.32343 17.7892 3.21914 16.7377C2.11486 15.6862 1.27804 14.3858 0.778503 12.9452C0.278971 11.5045 0.13121 9.96521 0.34755 8.4558C0.563889 6.94639 1.13805 5.5106 2.02214 4.26822C2.90623 3.02584 4.07461 2.0129 5.42979 1.31391C6.78497 0.61491 8.28767 0.25013 9.8125 0.25ZM9.8125 2.5C7.87311 2.5 6.01314 3.27042 4.64178 4.64178C3.27042 6.01314 2.5 7.8731 2.5 9.8125C2.5 11.7519 3.27042 13.6119 4.64178 14.9832C6.01314 16.3546 7.87311 17.125 9.8125 17.125C11.7519 17.125 13.6119 16.3546 14.9832 14.9832C16.3546 13.6119 17.125 11.7519 17.125 9.8125C17.125 7.8731 16.3546 6.01314 14.9832 4.64178C13.6119 3.27042 11.7519 2.5 9.8125 2.5ZM9.8125 3.625C11.4535 3.625 13.0273 4.2769 14.1877 5.43728C15.3481 6.59766 16 8.17147 16 9.8125C16 11.4535 15.3481 13.0273 14.1877 14.1877C13.0273 15.3481 11.4535 16 9.8125 16C8.17148 16 6.59766 15.3481 5.43728 14.1877C4.2769 13.0273 3.625 11.4535 3.625 9.8125C3.625 8.17147 4.2769 6.59766 5.43728 5.43728C6.59766 4.2769 8.17148 3.625 9.8125 3.625Z" fill="#D8C4B6"/>
</svg>
